<mxfile host="app.diagrams.net" modified="2022-04-08T10:37:18.933Z" agent="5.0 (Macintosh; Intel Mac OS X 10_15_7) AppleWebKit/537.36 (KHTML, like Gecko) Chrome/100.0.4896.75 Safari/537.36" etag="tCUjvWRBYzSzRim55fMa" version="17.4.0" type="github">
  <diagram id="vAMlp3YLuijeeZTll3_J" name="Page-1">
    <mxGraphModel dx="2864" dy="1316" grid="1" gridSize="10" guides="1" tooltips="1" connect="1" arrows="1" fold="1" page="1" pageScale="1" pageWidth="827" pageHeight="1169" math="0" shadow="0">
      <root>
        <mxCell id="0" />
        <mxCell id="1" parent="0" />
        <mxCell id="EWt5b8vn7UuF1jzuAeMk-30" value="&amp;lt;&amp;lt;基础组件类&amp;gt;&amp;gt;&lt;br&gt;BaseWidget&lt;br&gt;" style="swimlane;fontStyle=0;align=center;verticalAlign=top;childLayout=stackLayout;horizontal=1;startSize=55;horizontalStack=0;resizeParent=1;resizeParentMax=0;resizeLast=0;collapsible=0;marginBottom=0;html=1;" parent="1" vertex="1">
          <mxGeometry x="235" y="300" width="140" height="175" as="geometry" />
        </mxCell>
        <mxCell id="EWt5b8vn7UuF1jzuAeMk-32" value="name:String" style="text;html=1;strokeColor=none;fillColor=none;align=left;verticalAlign=middle;spacingLeft=4;spacingRight=4;overflow=hidden;rotatable=0;points=[[0,0.5],[1,0.5]];portConstraint=eastwest;" parent="EWt5b8vn7UuF1jzuAeMk-30" vertex="1">
          <mxGeometry y="55" width="140" height="20" as="geometry" />
        </mxCell>
        <mxCell id="EWt5b8vn7UuF1jzuAeMk-39" value="code:String" style="text;html=1;strokeColor=none;fillColor=none;align=left;verticalAlign=middle;spacingLeft=4;spacingRight=4;overflow=hidden;rotatable=0;points=[[0,0.5],[1,0.5]];portConstraint=eastwest;" parent="EWt5b8vn7UuF1jzuAeMk-30" vertex="1">
          <mxGeometry y="75" width="140" height="20" as="geometry" />
        </mxCell>
        <mxCell id="EWt5b8vn7UuF1jzuAeMk-40" value="wigetType: String" style="text;html=1;strokeColor=none;fillColor=none;align=left;verticalAlign=middle;spacingLeft=4;spacingRight=4;overflow=hidden;rotatable=0;points=[[0,0.5],[1,0.5]];portConstraint=eastwest;" parent="EWt5b8vn7UuF1jzuAeMk-30" vertex="1">
          <mxGeometry y="95" width="140" height="20" as="geometry" />
        </mxCell>
        <mxCell id="EWt5b8vn7UuF1jzuAeMk-42" value="dataType: String" style="text;html=1;strokeColor=none;fillColor=none;align=left;verticalAlign=middle;spacingLeft=4;spacingRight=4;overflow=hidden;rotatable=0;points=[[0,0.5],[1,0.5]];portConstraint=eastwest;" parent="EWt5b8vn7UuF1jzuAeMk-30" vertex="1">
          <mxGeometry y="115" width="140" height="20" as="geometry" />
        </mxCell>
        <mxCell id="EWt5b8vn7UuF1jzuAeMk-33" value="&lt;span style=&quot;color: rgb(0 , 0 , 0)&quot;&gt;libInfoCode:String&lt;/span&gt;" style="text;html=1;strokeColor=none;fillColor=none;align=left;verticalAlign=middle;spacingLeft=4;spacingRight=4;overflow=hidden;rotatable=0;points=[[0,0.5],[1,0.5]];portConstraint=eastwest;fontColor=#808080;" parent="EWt5b8vn7UuF1jzuAeMk-30" vertex="1">
          <mxGeometry y="135" width="140" height="20" as="geometry" />
        </mxCell>
        <mxCell id="EWt5b8vn7UuF1jzuAeMk-43" value="&lt;span style=&quot;color: rgb(0 , 0 , 0)&quot;&gt;defalutValue: any&lt;/span&gt;" style="text;html=1;strokeColor=none;fillColor=none;align=left;verticalAlign=middle;spacingLeft=4;spacingRight=4;overflow=hidden;rotatable=0;points=[[0,0.5],[1,0.5]];portConstraint=eastwest;fontColor=#808080;" parent="EWt5b8vn7UuF1jzuAeMk-30" vertex="1">
          <mxGeometry y="155" width="140" height="20" as="geometry" />
        </mxCell>
        <mxCell id="EWt5b8vn7UuF1jzuAeMk-46" value="&amp;lt;&amp;lt;组件定义类&amp;gt;&amp;gt;&lt;br&gt;WidgetDefine" style="swimlane;fontStyle=0;align=center;verticalAlign=top;childLayout=stackLayout;horizontal=1;startSize=55;horizontalStack=0;resizeParent=1;resizeParentMax=0;resizeLast=0;collapsible=0;marginBottom=0;html=1;" parent="1" vertex="1">
          <mxGeometry x="-200" y="320" width="300" height="275" as="geometry" />
        </mxCell>
        <mxCell id="EWt5b8vn7UuF1jzuAeMk-47" value="icon:String" style="text;html=1;strokeColor=none;fillColor=none;align=left;verticalAlign=middle;spacingLeft=4;spacingRight=4;overflow=hidden;rotatable=0;points=[[0,0.5],[1,0.5]];portConstraint=eastwest;" parent="EWt5b8vn7UuF1jzuAeMk-46" vertex="1">
          <mxGeometry y="55" width="300" height="20" as="geometry" />
        </mxCell>
        <mxCell id="EWt5b8vn7UuF1jzuAeMk-48" value="configFrom: Component" style="text;html=1;strokeColor=none;fillColor=none;align=left;verticalAlign=middle;spacingLeft=4;spacingRight=4;overflow=hidden;rotatable=0;points=[[0,0.5],[1,0.5]];portConstraint=eastwest;" parent="EWt5b8vn7UuF1jzuAeMk-46" vertex="1">
          <mxGeometry y="75" width="300" height="20" as="geometry" />
        </mxCell>
        <mxCell id="EWt5b8vn7UuF1jzuAeMk-49" value="widget: Component" style="text;html=1;strokeColor=none;fillColor=none;align=left;verticalAlign=middle;spacingLeft=4;spacingRight=4;overflow=hidden;rotatable=0;points=[[0,0.5],[1,0.5]];portConstraint=eastwest;" parent="EWt5b8vn7UuF1jzuAeMk-46" vertex="1">
          <mxGeometry y="95" width="300" height="20" as="geometry" />
        </mxCell>
        <mxCell id="EWt5b8vn7UuF1jzuAeMk-50" value="child: Component" style="text;html=1;strokeColor=none;fillColor=none;align=left;verticalAlign=middle;spacingLeft=4;spacingRight=4;overflow=hidden;rotatable=0;points=[[0,0.5],[1,0.5]];portConstraint=eastwest;" parent="EWt5b8vn7UuF1jzuAeMk-46" vertex="1">
          <mxGeometry y="115" width="300" height="20" as="geometry" />
        </mxCell>
        <mxCell id="EWt5b8vn7UuF1jzuAeMk-51" value="listFormatter: Component" style="text;html=1;strokeColor=none;fillColor=none;align=left;verticalAlign=middle;spacingLeft=4;spacingRight=4;overflow=hidden;rotatable=0;points=[[0,0.5],[1,0.5]];portConstraint=eastwest;" parent="EWt5b8vn7UuF1jzuAeMk-46" vertex="1">
          <mxGeometry y="135" width="300" height="20" as="geometry" />
        </mxCell>
        <mxCell id="EWt5b8vn7UuF1jzuAeMk-52" value="&lt;font color=&quot;#000000&quot;&gt;searchWidget: Component&lt;/font&gt;" style="text;html=1;strokeColor=none;fillColor=none;align=left;verticalAlign=middle;spacingLeft=4;spacingRight=4;overflow=hidden;rotatable=0;points=[[0,0.5],[1,0.5]];portConstraint=eastwest;fontColor=#808080;" parent="EWt5b8vn7UuF1jzuAeMk-46" vertex="1">
          <mxGeometry y="155" width="300" height="20" as="geometry" />
        </mxCell>
        <mxCell id="EWt5b8vn7UuF1jzuAeMk-53" value="&lt;span style=&quot;color: rgb(0 , 0 , 0)&quot;&gt;mobileWidget: Component&lt;/span&gt;" style="text;html=1;strokeColor=none;fillColor=none;align=left;verticalAlign=middle;spacingLeft=4;spacingRight=4;overflow=hidden;rotatable=0;points=[[0,0.5],[1,0.5]];portConstraint=eastwest;fontColor=#808080;" parent="EWt5b8vn7UuF1jzuAeMk-46" vertex="1">
          <mxGeometry y="175" width="300" height="20" as="geometry" />
        </mxCell>
        <mxCell id="aLEHj2pvLLhQeSvKvPRY-81" value="&lt;span style=&quot;color: rgb(0 , 0 , 0)&quot;&gt;props: Object&lt;/span&gt;" style="text;html=1;strokeColor=none;fillColor=none;align=left;verticalAlign=middle;spacingLeft=4;spacingRight=4;overflow=hidden;rotatable=0;points=[[0,0.5],[1,0.5]];portConstraint=eastwest;fontColor=#808080;" parent="EWt5b8vn7UuF1jzuAeMk-46" vertex="1">
          <mxGeometry y="195" width="300" height="20" as="geometry" />
        </mxCell>
        <mxCell id="aLEHj2pvLLhQeSvKvPRY-20" value="&lt;span style=&quot;color: rgb(0 , 0 , 0)&quot;&gt;supportBindVariableProps: String[]&lt;/span&gt;" style="text;html=1;strokeColor=none;fillColor=none;align=left;verticalAlign=middle;spacingLeft=4;spacingRight=4;overflow=hidden;rotatable=0;points=[[0,0.5],[1,0.5]];portConstraint=eastwest;fontColor=#808080;" parent="EWt5b8vn7UuF1jzuAeMk-46" vertex="1">
          <mxGeometry y="215" width="300" height="20" as="geometry" />
        </mxCell>
        <mxCell id="aLEHj2pvLLhQeSvKvPRY-21" value="&lt;span style=&quot;color: rgb(0 , 0 , 0)&quot;&gt;supportI18NProps: String[]&lt;/span&gt;" style="text;html=1;strokeColor=none;fillColor=none;align=left;verticalAlign=middle;spacingLeft=4;spacingRight=4;overflow=hidden;rotatable=0;points=[[0,0.5],[1,0.5]];portConstraint=eastwest;fontColor=#808080;" parent="EWt5b8vn7UuF1jzuAeMk-46" vertex="1">
          <mxGeometry y="235" width="300" height="20" as="geometry" />
        </mxCell>
        <mxCell id="AlY3eQ7WbAes0plMb5D--19" value="&lt;font color=&quot;#000000&quot;&gt;supportEvents:String[]&lt;/font&gt;" style="text;html=1;strokeColor=none;fillColor=none;align=left;verticalAlign=middle;spacingLeft=4;spacingRight=4;overflow=hidden;rotatable=0;points=[[0,0.5],[1,0.5]];portConstraint=eastwest;fontColor=#808080;" vertex="1" parent="EWt5b8vn7UuF1jzuAeMk-46">
          <mxGeometry y="255" width="300" height="20" as="geometry" />
        </mxCell>
        <mxCell id="EWt5b8vn7UuF1jzuAeMk-55" value="继承" style="html=1;verticalAlign=bottom;labelBackgroundColor=none;endArrow=open;endFill=0;dashed=1;rounded=0;entryX=-0.033;entryY=0.218;entryDx=0;entryDy=0;entryPerimeter=0;" parent="1" source="EWt5b8vn7UuF1jzuAeMk-46" target="EWt5b8vn7UuF1jzuAeMk-30" edge="1">
          <mxGeometry width="160" relative="1" as="geometry">
            <mxPoint x="480" y="500" as="sourcePoint" />
            <mxPoint x="420" y="310" as="targetPoint" />
          </mxGeometry>
        </mxCell>
        <mxCell id="EWt5b8vn7UuF1jzuAeMk-56" value="&amp;lt;&amp;lt;组件实例类&amp;gt;&amp;gt;&lt;br&gt;WidgetInstance" style="swimlane;fontStyle=0;align=center;verticalAlign=top;childLayout=stackLayout;horizontal=1;startSize=55;horizontalStack=0;resizeParent=1;resizeParentMax=0;resizeLast=0;collapsible=0;marginBottom=0;html=1;" parent="1" vertex="1">
          <mxGeometry x="640" y="827.5" width="260" height="215" as="geometry" />
        </mxCell>
        <mxCell id="EWt5b8vn7UuF1jzuAeMk-57" value="id: String" style="text;html=1;strokeColor=none;fillColor=none;align=left;verticalAlign=middle;spacingLeft=4;spacingRight=4;overflow=hidden;rotatable=0;points=[[0,0.5],[1,0.5]];portConstraint=eastwest;" parent="EWt5b8vn7UuF1jzuAeMk-56" vertex="1">
          <mxGeometry y="55" width="260" height="20" as="geometry" />
        </mxCell>
        <mxCell id="aLEHj2pvLLhQeSvKvPRY-84" value="props: Props[]" style="text;html=1;strokeColor=none;fillColor=none;align=left;verticalAlign=middle;spacingLeft=4;spacingRight=4;overflow=hidden;rotatable=0;points=[[0,0.5],[1,0.5]];portConstraint=eastwest;" parent="EWt5b8vn7UuF1jzuAeMk-56" vertex="1">
          <mxGeometry y="75" width="260" height="20" as="geometry" />
        </mxCell>
        <mxCell id="EWt5b8vn7UuF1jzuAeMk-58" value="children: WidgetInstance[][]" style="text;html=1;strokeColor=none;fillColor=none;align=left;verticalAlign=middle;spacingLeft=4;spacingRight=4;overflow=hidden;rotatable=0;points=[[0,0.5],[1,0.5]];portConstraint=eastwest;" parent="EWt5b8vn7UuF1jzuAeMk-56" vertex="1">
          <mxGeometry y="95" width="260" height="20" as="geometry" />
        </mxCell>
        <mxCell id="EWt5b8vn7UuF1jzuAeMk-65" value="visible: Boolean" style="text;html=1;strokeColor=none;fillColor=none;align=left;verticalAlign=middle;spacingLeft=4;spacingRight=4;overflow=hidden;rotatable=0;points=[[0,0.5],[1,0.5]];portConstraint=eastwest;" parent="EWt5b8vn7UuF1jzuAeMk-56" vertex="1">
          <mxGeometry y="115" width="260" height="20" as="geometry" />
        </mxCell>
        <mxCell id="EWt5b8vn7UuF1jzuAeMk-66" value="editable: Boolean" style="text;html=1;strokeColor=none;fillColor=none;align=left;verticalAlign=middle;spacingLeft=4;spacingRight=4;overflow=hidden;rotatable=0;points=[[0,0.5],[1,0.5]];portConstraint=eastwest;" parent="EWt5b8vn7UuF1jzuAeMk-56" vertex="1">
          <mxGeometry y="135" width="260" height="20" as="geometry" />
        </mxCell>
        <mxCell id="EWt5b8vn7UuF1jzuAeMk-77" value="validateRuleConfig: validateRuleConfig" style="text;html=1;strokeColor=none;fillColor=none;align=left;verticalAlign=middle;spacingLeft=4;spacingRight=4;overflow=hidden;rotatable=0;points=[[0,0.5],[1,0.5]];portConstraint=eastwest;" parent="EWt5b8vn7UuF1jzuAeMk-56" vertex="1">
          <mxGeometry y="155" width="260" height="20" as="geometry" />
        </mxCell>
        <mxCell id="EWt5b8vn7UuF1jzuAeMk-78" value="filedName: String" style="text;html=1;strokeColor=none;fillColor=none;align=left;verticalAlign=middle;spacingLeft=4;spacingRight=4;overflow=hidden;rotatable=0;points=[[0,0.5],[1,0.5]];portConstraint=eastwest;" parent="EWt5b8vn7UuF1jzuAeMk-56" vertex="1">
          <mxGeometry y="175" width="260" height="20" as="geometry" />
        </mxCell>
        <mxCell id="AlY3eQ7WbAes0plMb5D--10" value="events: EventCodeSegment[]" style="text;html=1;strokeColor=none;fillColor=none;align=left;verticalAlign=middle;spacingLeft=4;spacingRight=4;overflow=hidden;rotatable=0;points=[[0,0.5],[1,0.5]];portConstraint=eastwest;" vertex="1" parent="EWt5b8vn7UuF1jzuAeMk-56">
          <mxGeometry y="195" width="260" height="20" as="geometry" />
        </mxCell>
        <mxCell id="EWt5b8vn7UuF1jzuAeMk-68" style="edgeStyle=orthogonalEdgeStyle;rounded=0;orthogonalLoop=1;jettySize=auto;html=1;" parent="EWt5b8vn7UuF1jzuAeMk-56" source="EWt5b8vn7UuF1jzuAeMk-58" target="EWt5b8vn7UuF1jzuAeMk-56" edge="1">
          <mxGeometry relative="1" as="geometry">
            <mxPoint x="260" y="-20" as="targetPoint" />
            <Array as="points">
              <mxPoint x="340" y="85" />
              <mxPoint x="340" y="-50" />
              <mxPoint x="210" y="-50" />
            </Array>
          </mxGeometry>
        </mxCell>
        <mxCell id="EWt5b8vn7UuF1jzuAeMk-69" value="1对多" style="edgeLabel;html=1;align=center;verticalAlign=middle;resizable=0;points=[];" parent="EWt5b8vn7UuF1jzuAeMk-68" vertex="1" connectable="0">
          <mxGeometry x="-0.1734" y="-3" relative="1" as="geometry">
            <mxPoint as="offset" />
          </mxGeometry>
        </mxCell>
        <mxCell id="EWt5b8vn7UuF1jzuAeMk-64" value="继承" style="html=1;verticalAlign=bottom;labelBackgroundColor=none;endArrow=open;endFill=0;dashed=1;rounded=0;entryX=1.023;entryY=0.093;entryDx=0;entryDy=0;entryPerimeter=0;" parent="1" source="EWt5b8vn7UuF1jzuAeMk-56" target="EWt5b8vn7UuF1jzuAeMk-30" edge="1">
          <mxGeometry width="160" relative="1" as="geometry">
            <mxPoint x="341.3418080809306" y="570" as="sourcePoint" />
            <mxPoint x="507.05999999999995" y="255.29500000000007" as="targetPoint" />
          </mxGeometry>
        </mxCell>
        <mxCell id="EWt5b8vn7UuF1jzuAeMk-79" value="&amp;lt;&amp;lt;验证配置&amp;gt;&amp;gt;&lt;br&gt;WidgetInstance" style="swimlane;fontStyle=0;align=center;verticalAlign=top;childLayout=stackLayout;horizontal=1;startSize=55;horizontalStack=0;resizeParent=1;resizeParentMax=0;resizeLast=0;collapsible=0;marginBottom=0;html=1;" parent="1" vertex="1">
          <mxGeometry x="1120" y="950" width="190" height="115" as="geometry" />
        </mxCell>
        <mxCell id="EWt5b8vn7UuF1jzuAeMk-80" value="key: String" style="text;html=1;strokeColor=none;fillColor=none;align=left;verticalAlign=middle;spacingLeft=4;spacingRight=4;overflow=hidden;rotatable=0;points=[[0,0.5],[1,0.5]];portConstraint=eastwest;" parent="EWt5b8vn7UuF1jzuAeMk-79" vertex="1">
          <mxGeometry y="55" width="190" height="20" as="geometry" />
        </mxCell>
        <mxCell id="EWt5b8vn7UuF1jzuAeMk-81" value="params: String" style="text;html=1;strokeColor=none;fillColor=none;align=left;verticalAlign=middle;spacingLeft=4;spacingRight=4;overflow=hidden;rotatable=0;points=[[0,0.5],[1,0.5]];portConstraint=eastwest;" parent="EWt5b8vn7UuF1jzuAeMk-79" vertex="1">
          <mxGeometry y="75" width="190" height="20" as="geometry" />
        </mxCell>
        <mxCell id="EWt5b8vn7UuF1jzuAeMk-82" value="message: String" style="text;html=1;strokeColor=none;fillColor=none;align=left;verticalAlign=middle;spacingLeft=4;spacingRight=4;overflow=hidden;rotatable=0;points=[[0,0.5],[1,0.5]];portConstraint=eastwest;" parent="EWt5b8vn7UuF1jzuAeMk-79" vertex="1">
          <mxGeometry y="95" width="190" height="20" as="geometry" />
        </mxCell>
        <mxCell id="EWt5b8vn7UuF1jzuAeMk-89" style="edgeStyle=orthogonalEdgeStyle;rounded=0;orthogonalLoop=1;jettySize=auto;html=1;exitX=1;exitY=0.5;exitDx=0;exitDy=0;" parent="1" source="EWt5b8vn7UuF1jzuAeMk-77" target="EWt5b8vn7UuF1jzuAeMk-79" edge="1">
          <mxGeometry relative="1" as="geometry" />
        </mxCell>
        <mxCell id="EWt5b8vn7UuF1jzuAeMk-90" value="1对多" style="edgeLabel;html=1;align=center;verticalAlign=middle;resizable=0;points=[];" parent="EWt5b8vn7UuF1jzuAeMk-89" vertex="1" connectable="0">
          <mxGeometry x="-0.0688" y="-1" relative="1" as="geometry">
            <mxPoint as="offset" />
          </mxGeometry>
        </mxCell>
        <mxCell id="EWt5b8vn7UuF1jzuAeMk-91" value="&amp;lt;&amp;lt;页面元数据&amp;gt;&amp;gt;&lt;br&gt;PageMetaData" style="swimlane;fontStyle=0;align=center;verticalAlign=top;childLayout=stackLayout;horizontal=1;startSize=55;horizontalStack=0;resizeParent=1;resizeParentMax=0;resizeLast=0;collapsible=0;marginBottom=0;html=1;fillColor=#d5e8d4;strokeColor=#82b366;" parent="1" vertex="1">
          <mxGeometry x="270" y="870" width="260" height="235" as="geometry" />
        </mxCell>
        <mxCell id="EWt5b8vn7UuF1jzuAeMk-92" value="id: String" style="text;html=1;strokeColor=none;fillColor=none;align=left;verticalAlign=middle;spacingLeft=4;spacingRight=4;overflow=hidden;rotatable=0;points=[[0,0.5],[1,0.5]];portConstraint=eastwest;" parent="EWt5b8vn7UuF1jzuAeMk-91" vertex="1">
          <mxGeometry y="55" width="260" height="20" as="geometry" />
        </mxCell>
        <mxCell id="EWt5b8vn7UuF1jzuAeMk-93" value="name:String" style="text;html=1;strokeColor=none;fillColor=none;align=left;verticalAlign=middle;spacingLeft=4;spacingRight=4;overflow=hidden;rotatable=0;points=[[0,0.5],[1,0.5]];portConstraint=eastwest;" parent="EWt5b8vn7UuF1jzuAeMk-91" vertex="1">
          <mxGeometry y="75" width="260" height="20" as="geometry" />
        </mxCell>
        <mxCell id="EWt5b8vn7UuF1jzuAeMk-94" value="widgets: WidgetInstance" style="text;html=1;strokeColor=none;fillColor=none;align=left;verticalAlign=middle;spacingLeft=4;spacingRight=4;overflow=hidden;rotatable=0;points=[[0,0.5],[1,0.5]];portConstraint=eastwest;" parent="EWt5b8vn7UuF1jzuAeMk-91" vertex="1">
          <mxGeometry y="95" width="260" height="20" as="geometry" />
        </mxCell>
        <mxCell id="EWt5b8vn7UuF1jzuAeMk-95" value="pageType: String" style="text;html=1;strokeColor=none;fillColor=none;align=left;verticalAlign=middle;spacingLeft=4;spacingRight=4;overflow=hidden;rotatable=0;points=[[0,0.5],[1,0.5]];portConstraint=eastwest;" parent="EWt5b8vn7UuF1jzuAeMk-91" vertex="1">
          <mxGeometry y="115" width="260" height="20" as="geometry" />
        </mxCell>
        <mxCell id="EWt5b8vn7UuF1jzuAeMk-96" value="businessRuleList: BusinessRule[]" style="text;html=1;strokeColor=none;fillColor=none;align=left;verticalAlign=middle;spacingLeft=4;spacingRight=4;overflow=hidden;rotatable=0;points=[[0,0.5],[1,0.5]];portConstraint=eastwest;" parent="EWt5b8vn7UuF1jzuAeMk-91" vertex="1">
          <mxGeometry y="135" width="260" height="20" as="geometry" />
        </mxCell>
        <mxCell id="EWt5b8vn7UuF1jzuAeMk-97" value="viewConfigList: ViewCofnig[]" style="text;html=1;strokeColor=none;fillColor=none;align=left;verticalAlign=middle;spacingLeft=4;spacingRight=4;overflow=hidden;rotatable=0;points=[[0,0.5],[1,0.5]];portConstraint=eastwest;" parent="EWt5b8vn7UuF1jzuAeMk-91" vertex="1">
          <mxGeometry y="155" width="260" height="20" as="geometry" />
        </mxCell>
        <mxCell id="EWt5b8vn7UuF1jzuAeMk-102" value="customButton: CustomButton[]" style="text;html=1;strokeColor=none;fillColor=none;align=left;verticalAlign=middle;spacingLeft=4;spacingRight=4;overflow=hidden;rotatable=0;points=[[0,0.5],[1,0.5]];portConstraint=eastwest;" parent="EWt5b8vn7UuF1jzuAeMk-91" vertex="1">
          <mxGeometry y="175" width="260" height="20" as="geometry" />
        </mxCell>
        <mxCell id="0nsjgeY7RRaT_HOc3P06-43" value="dataSource: PageDataSource[]" style="text;html=1;strokeColor=none;fillColor=none;align=left;verticalAlign=middle;spacingLeft=4;spacingRight=4;overflow=hidden;rotatable=0;points=[[0,0.5],[1,0.5]];portConstraint=eastwest;" parent="EWt5b8vn7UuF1jzuAeMk-91" vertex="1">
          <mxGeometry y="195" width="260" height="20" as="geometry" />
        </mxCell>
        <mxCell id="AlY3eQ7WbAes0plMb5D--5" value="codeSegments: CodeSegment[]" style="text;html=1;strokeColor=none;fillColor=none;align=left;verticalAlign=middle;spacingLeft=4;spacingRight=4;overflow=hidden;rotatable=0;points=[[0,0.5],[1,0.5]];portConstraint=eastwest;" vertex="1" parent="EWt5b8vn7UuF1jzuAeMk-91">
          <mxGeometry y="215" width="260" height="20" as="geometry" />
        </mxCell>
        <mxCell id="0nsjgeY7RRaT_HOc3P06-1" value="&amp;lt;&amp;lt;属性类&amp;gt;&amp;gt;&lt;br&gt;Props" style="swimlane;fontStyle=0;align=center;verticalAlign=top;childLayout=stackLayout;horizontal=1;startSize=55;horizontalStack=0;resizeParent=1;resizeParentMax=0;resizeLast=0;collapsible=0;marginBottom=0;html=1;" parent="1" vertex="1">
          <mxGeometry x="720" y="410" width="140" height="175" as="geometry" />
        </mxCell>
        <mxCell id="0nsjgeY7RRaT_HOc3P06-2" value="key: String" style="text;html=1;strokeColor=none;fillColor=none;align=left;verticalAlign=middle;spacingLeft=4;spacingRight=4;overflow=hidden;rotatable=0;points=[[0,0.5],[1,0.5]];portConstraint=eastwest;" parent="0nsjgeY7RRaT_HOc3P06-1" vertex="1">
          <mxGeometry y="55" width="140" height="20" as="geometry" />
        </mxCell>
        <mxCell id="0nsjgeY7RRaT_HOc3P06-3" value="dataType: String" style="text;html=1;strokeColor=none;fillColor=none;align=left;verticalAlign=middle;spacingLeft=4;spacingRight=4;overflow=hidden;rotatable=0;points=[[0,0.5],[1,0.5]];portConstraint=eastwest;" parent="0nsjgeY7RRaT_HOc3P06-1" vertex="1">
          <mxGeometry y="75" width="140" height="20" as="geometry" />
        </mxCell>
        <mxCell id="0nsjgeY7RRaT_HOc3P06-9" value="bindVariable: String" style="text;html=1;strokeColor=none;fillColor=none;align=left;verticalAlign=middle;spacingLeft=4;spacingRight=4;overflow=hidden;rotatable=0;points=[[0,0.5],[1,0.5]];portConstraint=eastwest;" parent="0nsjgeY7RRaT_HOc3P06-1" vertex="1">
          <mxGeometry y="95" width="140" height="20" as="geometry" />
        </mxCell>
        <mxCell id="0nsjgeY7RRaT_HOc3P06-10" value="i18nId: String" style="text;html=1;strokeColor=none;fillColor=none;align=left;verticalAlign=middle;spacingLeft=4;spacingRight=4;overflow=hidden;rotatable=0;points=[[0,0.5],[1,0.5]];portConstraint=eastwest;" parent="0nsjgeY7RRaT_HOc3P06-1" vertex="1">
          <mxGeometry y="115" width="140" height="20" as="geometry" />
        </mxCell>
        <mxCell id="0nsjgeY7RRaT_HOc3P06-11" value="rawValue: any" style="text;html=1;strokeColor=none;fillColor=none;align=left;verticalAlign=middle;spacingLeft=4;spacingRight=4;overflow=hidden;rotatable=0;points=[[0,0.5],[1,0.5]];portConstraint=eastwest;" parent="0nsjgeY7RRaT_HOc3P06-1" vertex="1">
          <mxGeometry y="135" width="140" height="20" as="geometry" />
        </mxCell>
        <mxCell id="aLEHj2pvLLhQeSvKvPRY-78" value="type: String" style="text;html=1;strokeColor=none;fillColor=none;align=left;verticalAlign=middle;spacingLeft=4;spacingRight=4;overflow=hidden;rotatable=0;points=[[0,0.5],[1,0.5]];portConstraint=eastwest;" parent="0nsjgeY7RRaT_HOc3P06-1" vertex="1">
          <mxGeometry y="155" width="140" height="20" as="geometry" />
        </mxCell>
        <mxCell id="0nsjgeY7RRaT_HOc3P06-12" style="edgeStyle=orthogonalEdgeStyle;rounded=0;orthogonalLoop=1;jettySize=auto;html=1;entryX=0.5;entryY=0;entryDx=0;entryDy=0;exitX=0;exitY=0.5;exitDx=0;exitDy=0;" parent="1" source="aLEHj2pvLLhQeSvKvPRY-84" target="0nsjgeY7RRaT_HOc3P06-1" edge="1">
          <mxGeometry relative="1" as="geometry">
            <mxPoint x="375" y="424.9999999999998" as="sourcePoint" />
          </mxGeometry>
        </mxCell>
        <mxCell id="0nsjgeY7RRaT_HOc3P06-13" value="一对多" style="edgeLabel;html=1;align=center;verticalAlign=middle;resizable=0;points=[];" parent="0nsjgeY7RRaT_HOc3P06-12" vertex="1" connectable="0">
          <mxGeometry x="0.1899" y="2" relative="1" as="geometry">
            <mxPoint as="offset" />
          </mxGeometry>
        </mxCell>
        <mxCell id="0nsjgeY7RRaT_HOc3P06-15" value="&amp;lt;&amp;lt;业务规则&amp;gt;&amp;gt;&lt;br&gt;BusinessRule" style="swimlane;fontStyle=0;align=center;verticalAlign=top;childLayout=stackLayout;horizontal=1;startSize=55;horizontalStack=0;resizeParent=1;resizeParentMax=0;resizeLast=0;collapsible=0;marginBottom=0;html=1;" parent="1" vertex="1">
          <mxGeometry x="-250" y="660" width="170" height="135" as="geometry" />
        </mxCell>
        <mxCell id="0nsjgeY7RRaT_HOc3P06-16" value="id:String" style="text;html=1;strokeColor=none;fillColor=none;align=left;verticalAlign=middle;spacingLeft=4;spacingRight=4;overflow=hidden;rotatable=0;points=[[0,0.5],[1,0.5]];portConstraint=eastwest;" parent="0nsjgeY7RRaT_HOc3P06-15" vertex="1">
          <mxGeometry y="55" width="170" height="20" as="geometry" />
        </mxCell>
        <mxCell id="0nsjgeY7RRaT_HOc3P06-17" value="condition: JsonRule" style="text;html=1;strokeColor=none;fillColor=none;align=left;verticalAlign=middle;spacingLeft=4;spacingRight=4;overflow=hidden;rotatable=0;points=[[0,0.5],[1,0.5]];portConstraint=eastwest;" parent="0nsjgeY7RRaT_HOc3P06-15" vertex="1">
          <mxGeometry y="75" width="170" height="20" as="geometry" />
        </mxCell>
        <mxCell id="0nsjgeY7RRaT_HOc3P06-18" value="actions: BusinessRuleAction[]" style="text;html=1;strokeColor=none;fillColor=none;align=left;verticalAlign=middle;spacingLeft=4;spacingRight=4;overflow=hidden;rotatable=0;points=[[0,0.5],[1,0.5]];portConstraint=eastwest;" parent="0nsjgeY7RRaT_HOc3P06-15" vertex="1">
          <mxGeometry y="95" width="170" height="20" as="geometry" />
        </mxCell>
        <mxCell id="0nsjgeY7RRaT_HOc3P06-19" value="enable: String" style="text;html=1;strokeColor=none;fillColor=none;align=left;verticalAlign=middle;spacingLeft=4;spacingRight=4;overflow=hidden;rotatable=0;points=[[0,0.5],[1,0.5]];portConstraint=eastwest;" parent="0nsjgeY7RRaT_HOc3P06-15" vertex="1">
          <mxGeometry y="115" width="170" height="20" as="geometry" />
        </mxCell>
        <mxCell id="0nsjgeY7RRaT_HOc3P06-23" style="edgeStyle=orthogonalEdgeStyle;rounded=0;orthogonalLoop=1;jettySize=auto;html=1;exitX=0;exitY=0.5;exitDx=0;exitDy=0;" parent="1" source="EWt5b8vn7UuF1jzuAeMk-96" target="0nsjgeY7RRaT_HOc3P06-15" edge="1">
          <mxGeometry relative="1" as="geometry">
            <Array as="points">
              <mxPoint x="250" y="933" />
              <mxPoint x="250" y="795" />
              <mxPoint x="70" y="795" />
              <mxPoint x="70" y="698" />
            </Array>
          </mxGeometry>
        </mxCell>
        <mxCell id="0nsjgeY7RRaT_HOc3P06-24" value="1对多" style="edgeLabel;html=1;align=center;verticalAlign=middle;resizable=0;points=[];" parent="0nsjgeY7RRaT_HOc3P06-23" vertex="1" connectable="0">
          <mxGeometry x="-0.0795" y="-1" relative="1" as="geometry">
            <mxPoint x="-58" y="1" as="offset" />
          </mxGeometry>
        </mxCell>
        <mxCell id="0nsjgeY7RRaT_HOc3P06-26" style="edgeStyle=orthogonalEdgeStyle;rounded=0;orthogonalLoop=1;jettySize=auto;html=1;exitX=1;exitY=0.5;exitDx=0;exitDy=0;entryX=0;entryY=0.25;entryDx=0;entryDy=0;" parent="1" source="EWt5b8vn7UuF1jzuAeMk-94" target="EWt5b8vn7UuF1jzuAeMk-56" edge="1">
          <mxGeometry relative="1" as="geometry" />
        </mxCell>
        <mxCell id="0nsjgeY7RRaT_HOc3P06-27" value="&amp;lt;&amp;lt;业务规则动作&amp;gt;&amp;gt;&lt;br&gt;&lt;span style=&quot;text-align: left&quot;&gt;BusinessRuleAction&lt;/span&gt;" style="swimlane;fontStyle=0;align=center;verticalAlign=top;childLayout=stackLayout;horizontal=1;startSize=55;horizontalStack=0;resizeParent=1;resizeParentMax=0;resizeLast=0;collapsible=0;marginBottom=0;html=1;" parent="1" vertex="1">
          <mxGeometry x="-700" y="860" width="170" height="115" as="geometry" />
        </mxCell>
        <mxCell id="0nsjgeY7RRaT_HOc3P06-28" value="type: String" style="text;html=1;strokeColor=none;fillColor=none;align=left;verticalAlign=middle;spacingLeft=4;spacingRight=4;overflow=hidden;rotatable=0;points=[[0,0.5],[1,0.5]];portConstraint=eastwest;" parent="0nsjgeY7RRaT_HOc3P06-27" vertex="1">
          <mxGeometry y="55" width="170" height="20" as="geometry" />
        </mxCell>
        <mxCell id="0nsjgeY7RRaT_HOc3P06-29" value="tipsContent: String" style="text;html=1;strokeColor=none;fillColor=none;align=left;verticalAlign=middle;spacingLeft=4;spacingRight=4;overflow=hidden;rotatable=0;points=[[0,0.5],[1,0.5]];portConstraint=eastwest;" parent="0nsjgeY7RRaT_HOc3P06-27" vertex="1">
          <mxGeometry y="75" width="170" height="20" as="geometry" />
        </mxCell>
        <mxCell id="0nsjgeY7RRaT_HOc3P06-31" value="widgetIds: String[]" style="text;html=1;strokeColor=none;fillColor=none;align=left;verticalAlign=middle;spacingLeft=4;spacingRight=4;overflow=hidden;rotatable=0;points=[[0,0.5],[1,0.5]];portConstraint=eastwest;" parent="0nsjgeY7RRaT_HOc3P06-27" vertex="1">
          <mxGeometry y="95" width="170" height="20" as="geometry" />
        </mxCell>
        <mxCell id="0nsjgeY7RRaT_HOc3P06-32" value="1对多" style="edgeStyle=orthogonalEdgeStyle;rounded=0;orthogonalLoop=1;jettySize=auto;html=1;exitX=0;exitY=0.5;exitDx=0;exitDy=0;entryX=1;entryY=0.25;entryDx=0;entryDy=0;" parent="1" source="0nsjgeY7RRaT_HOc3P06-18" target="0nsjgeY7RRaT_HOc3P06-27" edge="1">
          <mxGeometry relative="1" as="geometry" />
        </mxCell>
        <mxCell id="0nsjgeY7RRaT_HOc3P06-33" value="&amp;lt;&amp;lt;规则对象&amp;gt;&amp;gt;&lt;br&gt;JsonRule" style="swimlane;fontStyle=0;align=center;verticalAlign=top;childLayout=stackLayout;horizontal=1;startSize=55;horizontalStack=0;resizeParent=1;resizeParentMax=0;resizeLast=0;collapsible=0;marginBottom=0;html=1;" parent="1" vertex="1">
          <mxGeometry x="-600" y="460" width="170" height="155" as="geometry" />
        </mxCell>
        <mxCell id="0nsjgeY7RRaT_HOc3P06-34" value="condition: String" style="text;html=1;strokeColor=none;fillColor=none;align=left;verticalAlign=middle;spacingLeft=4;spacingRight=4;overflow=hidden;rotatable=0;points=[[0,0.5],[1,0.5]];portConstraint=eastwest;" parent="0nsjgeY7RRaT_HOc3P06-33" vertex="1">
          <mxGeometry y="55" width="170" height="20" as="geometry" />
        </mxCell>
        <mxCell id="0nsjgeY7RRaT_HOc3P06-35" value="rules: JsonRule[]" style="text;html=1;strokeColor=none;fillColor=none;align=left;verticalAlign=middle;spacingLeft=4;spacingRight=4;overflow=hidden;rotatable=0;points=[[0,0.5],[1,0.5]];portConstraint=eastwest;" parent="0nsjgeY7RRaT_HOc3P06-33" vertex="1">
          <mxGeometry y="75" width="170" height="20" as="geometry" />
        </mxCell>
        <mxCell id="0nsjgeY7RRaT_HOc3P06-36" value="filed: String" style="text;html=1;strokeColor=none;fillColor=none;align=left;verticalAlign=middle;spacingLeft=4;spacingRight=4;overflow=hidden;rotatable=0;points=[[0,0.5],[1,0.5]];portConstraint=eastwest;" parent="0nsjgeY7RRaT_HOc3P06-33" vertex="1">
          <mxGeometry y="95" width="170" height="20" as="geometry" />
        </mxCell>
        <mxCell id="0nsjgeY7RRaT_HOc3P06-37" value="operator:String" style="text;html=1;strokeColor=none;fillColor=none;align=left;verticalAlign=middle;spacingLeft=4;spacingRight=4;overflow=hidden;rotatable=0;points=[[0,0.5],[1,0.5]];portConstraint=eastwest;" parent="0nsjgeY7RRaT_HOc3P06-33" vertex="1">
          <mxGeometry y="115" width="170" height="20" as="geometry" />
        </mxCell>
        <mxCell id="0nsjgeY7RRaT_HOc3P06-38" value="value: any" style="text;html=1;strokeColor=none;fillColor=none;align=left;verticalAlign=middle;spacingLeft=4;spacingRight=4;overflow=hidden;rotatable=0;points=[[0,0.5],[1,0.5]];portConstraint=eastwest;" parent="0nsjgeY7RRaT_HOc3P06-33" vertex="1">
          <mxGeometry y="135" width="170" height="20" as="geometry" />
        </mxCell>
        <mxCell id="0nsjgeY7RRaT_HOc3P06-39" style="edgeStyle=orthogonalEdgeStyle;rounded=0;orthogonalLoop=1;jettySize=auto;html=1;exitX=0;exitY=0.5;exitDx=0;exitDy=0;" parent="0nsjgeY7RRaT_HOc3P06-33" source="0nsjgeY7RRaT_HOc3P06-35" target="0nsjgeY7RRaT_HOc3P06-33" edge="1">
          <mxGeometry relative="1" as="geometry">
            <mxPoint x="-40" y="-10" as="targetPoint" />
            <Array as="points">
              <mxPoint x="-20" y="85" />
              <mxPoint x="-20" y="-70" />
              <mxPoint x="85" y="-70" />
            </Array>
          </mxGeometry>
        </mxCell>
        <mxCell id="0nsjgeY7RRaT_HOc3P06-40" value="1对多" style="edgeLabel;html=1;align=center;verticalAlign=middle;resizable=0;points=[];" parent="0nsjgeY7RRaT_HOc3P06-39" vertex="1" connectable="0">
          <mxGeometry x="0.2079" y="1" relative="1" as="geometry">
            <mxPoint as="offset" />
          </mxGeometry>
        </mxCell>
        <mxCell id="0nsjgeY7RRaT_HOc3P06-41" style="edgeStyle=orthogonalEdgeStyle;rounded=0;orthogonalLoop=1;jettySize=auto;html=1;exitX=0;exitY=0.5;exitDx=0;exitDy=0;entryX=0.25;entryY=1;entryDx=0;entryDy=0;" parent="1" source="0nsjgeY7RRaT_HOc3P06-17" target="0nsjgeY7RRaT_HOc3P06-33" edge="1">
          <mxGeometry relative="1" as="geometry" />
        </mxCell>
        <mxCell id="0nsjgeY7RRaT_HOc3P06-42" value="一对一" style="edgeLabel;html=1;align=center;verticalAlign=middle;resizable=0;points=[];" parent="0nsjgeY7RRaT_HOc3P06-41" vertex="1" connectable="0">
          <mxGeometry x="0.3448" y="1" relative="1" as="geometry">
            <mxPoint as="offset" />
          </mxGeometry>
        </mxCell>
        <mxCell id="0nsjgeY7RRaT_HOc3P06-44" value="&amp;lt;&amp;lt;视图配置&amp;gt;&amp;gt;&lt;br&gt;BusinessRule" style="swimlane;fontStyle=0;align=center;verticalAlign=top;childLayout=stackLayout;horizontal=1;startSize=55;horizontalStack=0;resizeParent=1;resizeParentMax=0;resizeLast=0;collapsible=0;marginBottom=0;html=1;" parent="1" vertex="1">
          <mxGeometry x="-220" y="850" width="170" height="135" as="geometry" />
        </mxCell>
        <mxCell id="0nsjgeY7RRaT_HOc3P06-45" value="id:String" style="text;html=1;strokeColor=none;fillColor=none;align=left;verticalAlign=middle;spacingLeft=4;spacingRight=4;overflow=hidden;rotatable=0;points=[[0,0.5],[1,0.5]];portConstraint=eastwest;" parent="0nsjgeY7RRaT_HOc3P06-44" vertex="1">
          <mxGeometry y="55" width="170" height="20" as="geometry" />
        </mxCell>
        <mxCell id="0nsjgeY7RRaT_HOc3P06-46" value="name:String" style="text;html=1;strokeColor=none;fillColor=none;align=left;verticalAlign=middle;spacingLeft=4;spacingRight=4;overflow=hidden;rotatable=0;points=[[0,0.5],[1,0.5]];portConstraint=eastwest;" parent="0nsjgeY7RRaT_HOc3P06-44" vertex="1">
          <mxGeometry y="75" width="170" height="20" as="geometry" />
        </mxCell>
        <mxCell id="0nsjgeY7RRaT_HOc3P06-47" value="dataFilter:JsonRule" style="text;html=1;strokeColor=none;fillColor=none;align=left;verticalAlign=middle;spacingLeft=4;spacingRight=4;overflow=hidden;rotatable=0;points=[[0,0.5],[1,0.5]];portConstraint=eastwest;" parent="0nsjgeY7RRaT_HOc3P06-44" vertex="1">
          <mxGeometry y="95" width="170" height="20" as="geometry" />
        </mxCell>
        <mxCell id="0nsjgeY7RRaT_HOc3P06-48" value="filedConfigs: FieldConfig[]" style="text;html=1;strokeColor=none;fillColor=none;align=left;verticalAlign=middle;spacingLeft=4;spacingRight=4;overflow=hidden;rotatable=0;points=[[0,0.5],[1,0.5]];portConstraint=eastwest;" parent="0nsjgeY7RRaT_HOc3P06-44" vertex="1">
          <mxGeometry y="115" width="170" height="20" as="geometry" />
        </mxCell>
        <mxCell id="0nsjgeY7RRaT_HOc3P06-49" style="edgeStyle=orthogonalEdgeStyle;rounded=0;orthogonalLoop=1;jettySize=auto;html=1;exitX=0;exitY=0.5;exitDx=0;exitDy=0;entryX=1;entryY=0.5;entryDx=0;entryDy=0;" parent="1" source="0nsjgeY7RRaT_HOc3P06-47" target="0nsjgeY7RRaT_HOc3P06-36" edge="1">
          <mxGeometry relative="1" as="geometry">
            <mxPoint x="-340" y="660" as="targetPoint" />
          </mxGeometry>
        </mxCell>
        <mxCell id="0nsjgeY7RRaT_HOc3P06-50" value="1对1" style="edgeLabel;html=1;align=center;verticalAlign=middle;resizable=0;points=[];" parent="0nsjgeY7RRaT_HOc3P06-49" vertex="1" connectable="0">
          <mxGeometry x="-0.2173" y="-2" relative="1" as="geometry">
            <mxPoint y="1" as="offset" />
          </mxGeometry>
        </mxCell>
        <mxCell id="0nsjgeY7RRaT_HOc3P06-51" value="&amp;lt;&amp;lt;字段配置&amp;gt;&amp;gt;&lt;br&gt;FieldConfig" style="swimlane;fontStyle=0;align=center;verticalAlign=top;childLayout=stackLayout;horizontal=1;startSize=55;horizontalStack=0;resizeParent=1;resizeParentMax=0;resizeLast=0;collapsible=0;marginBottom=0;html=1;" parent="1" vertex="1">
          <mxGeometry x="-530" y="1010" width="170" height="135" as="geometry" />
        </mxCell>
        <mxCell id="0nsjgeY7RRaT_HOc3P06-52" value="fieldId: String" style="text;html=1;strokeColor=none;fillColor=none;align=left;verticalAlign=middle;spacingLeft=4;spacingRight=4;overflow=hidden;rotatable=0;points=[[0,0.5],[1,0.5]];portConstraint=eastwest;" parent="0nsjgeY7RRaT_HOc3P06-51" vertex="1">
          <mxGeometry y="55" width="170" height="20" as="geometry" />
        </mxCell>
        <mxCell id="0nsjgeY7RRaT_HOc3P06-53" value="searchable: Boolean" style="text;html=1;strokeColor=none;fillColor=none;align=left;verticalAlign=middle;spacingLeft=4;spacingRight=4;overflow=hidden;rotatable=0;points=[[0,0.5],[1,0.5]];portConstraint=eastwest;" parent="0nsjgeY7RRaT_HOc3P06-51" vertex="1">
          <mxGeometry y="75" width="170" height="20" as="geometry" />
        </mxCell>
        <mxCell id="0nsjgeY7RRaT_HOc3P06-54" value="sortable: Boolean" style="text;html=1;strokeColor=none;fillColor=none;align=left;verticalAlign=middle;spacingLeft=4;spacingRight=4;overflow=hidden;rotatable=0;points=[[0,0.5],[1,0.5]];portConstraint=eastwest;" parent="0nsjgeY7RRaT_HOc3P06-51" vertex="1">
          <mxGeometry y="95" width="170" height="20" as="geometry" />
        </mxCell>
        <mxCell id="0nsjgeY7RRaT_HOc3P06-55" value="visible: Boolean" style="text;html=1;strokeColor=none;fillColor=none;align=left;verticalAlign=middle;spacingLeft=4;spacingRight=4;overflow=hidden;rotatable=0;points=[[0,0.5],[1,0.5]];portConstraint=eastwest;" parent="0nsjgeY7RRaT_HOc3P06-51" vertex="1">
          <mxGeometry y="115" width="170" height="20" as="geometry" />
        </mxCell>
        <mxCell id="0nsjgeY7RRaT_HOc3P06-56" style="edgeStyle=orthogonalEdgeStyle;rounded=0;orthogonalLoop=1;jettySize=auto;html=1;exitX=0;exitY=0.5;exitDx=0;exitDy=0;entryX=1;entryY=0.25;entryDx=0;entryDy=0;" parent="1" source="0nsjgeY7RRaT_HOc3P06-48" target="0nsjgeY7RRaT_HOc3P06-51" edge="1">
          <mxGeometry relative="1" as="geometry" />
        </mxCell>
        <mxCell id="0nsjgeY7RRaT_HOc3P06-57" value="1对多" style="edgeLabel;html=1;align=center;verticalAlign=middle;resizable=0;points=[];" parent="0nsjgeY7RRaT_HOc3P06-56" vertex="1" connectable="0">
          <mxGeometry x="0.0846" y="2" relative="1" as="geometry">
            <mxPoint as="offset" />
          </mxGeometry>
        </mxCell>
        <mxCell id="0nsjgeY7RRaT_HOc3P06-58" value="1对多" style="edgeStyle=orthogonalEdgeStyle;rounded=0;orthogonalLoop=1;jettySize=auto;html=1;exitX=0;exitY=0.5;exitDx=0;exitDy=0;entryX=1;entryY=0.25;entryDx=0;entryDy=0;" parent="1" source="EWt5b8vn7UuF1jzuAeMk-97" target="0nsjgeY7RRaT_HOc3P06-44" edge="1">
          <mxGeometry relative="1" as="geometry" />
        </mxCell>
        <mxCell id="0nsjgeY7RRaT_HOc3P06-59" value="&amp;lt;&amp;lt;自定义按钮&amp;gt;&amp;gt;&lt;br&gt;CustomButton" style="swimlane;fontStyle=0;align=center;verticalAlign=top;childLayout=stackLayout;horizontal=1;startSize=55;horizontalStack=0;resizeParent=1;resizeParentMax=0;resizeLast=0;collapsible=0;marginBottom=0;html=1;" parent="1" vertex="1">
          <mxGeometry x="-170" y="1010" width="170" height="295" as="geometry" />
        </mxCell>
        <mxCell id="0nsjgeY7RRaT_HOc3P06-60" value="id:String" style="text;html=1;strokeColor=none;fillColor=none;align=left;verticalAlign=middle;spacingLeft=4;spacingRight=4;overflow=hidden;rotatable=0;points=[[0,0.5],[1,0.5]];portConstraint=eastwest;" parent="0nsjgeY7RRaT_HOc3P06-59" vertex="1">
          <mxGeometry y="55" width="170" height="20" as="geometry" />
        </mxCell>
        <mxCell id="0nsjgeY7RRaT_HOc3P06-61" value="name:String" style="text;html=1;strokeColor=none;fillColor=none;align=left;verticalAlign=middle;spacingLeft=4;spacingRight=4;overflow=hidden;rotatable=0;points=[[0,0.5],[1,0.5]];portConstraint=eastwest;" parent="0nsjgeY7RRaT_HOc3P06-59" vertex="1">
          <mxGeometry y="75" width="170" height="20" as="geometry" />
        </mxCell>
        <mxCell id="0nsjgeY7RRaT_HOc3P06-62" value="description：String" style="text;html=1;strokeColor=none;fillColor=none;align=left;verticalAlign=middle;spacingLeft=4;spacingRight=4;overflow=hidden;rotatable=0;points=[[0,0.5],[1,0.5]];portConstraint=eastwest;" parent="0nsjgeY7RRaT_HOc3P06-59" vertex="1">
          <mxGeometry y="95" width="170" height="20" as="geometry" />
        </mxCell>
        <mxCell id="0nsjgeY7RRaT_HOc3P06-63" value="positon: String" style="text;html=1;strokeColor=none;fillColor=none;align=left;verticalAlign=middle;spacingLeft=4;spacingRight=4;overflow=hidden;rotatable=0;points=[[0,0.5],[1,0.5]];portConstraint=eastwest;" parent="0nsjgeY7RRaT_HOc3P06-59" vertex="1">
          <mxGeometry y="115" width="170" height="20" as="geometry" />
        </mxCell>
        <mxCell id="0nsjgeY7RRaT_HOc3P06-66" value="condition: JsonRule" style="text;html=1;strokeColor=none;fillColor=none;align=left;verticalAlign=middle;spacingLeft=4;spacingRight=4;overflow=hidden;rotatable=0;points=[[0,0.5],[1,0.5]];portConstraint=eastwest;" parent="0nsjgeY7RRaT_HOc3P06-59" vertex="1">
          <mxGeometry y="135" width="170" height="20" as="geometry" />
        </mxCell>
        <mxCell id="0nsjgeY7RRaT_HOc3P06-67" value="hasConfirm: Boolean" style="text;html=1;strokeColor=none;fillColor=none;align=left;verticalAlign=middle;spacingLeft=4;spacingRight=4;overflow=hidden;rotatable=0;points=[[0,0.5],[1,0.5]];portConstraint=eastwest;" parent="0nsjgeY7RRaT_HOc3P06-59" vertex="1">
          <mxGeometry y="155" width="170" height="20" as="geometry" />
        </mxCell>
        <mxCell id="0nsjgeY7RRaT_HOc3P06-68" value="triggerType: String" style="text;html=1;strokeColor=none;fillColor=none;align=left;verticalAlign=middle;spacingLeft=4;spacingRight=4;overflow=hidden;rotatable=0;points=[[0,0.5],[1,0.5]];portConstraint=eastwest;" parent="0nsjgeY7RRaT_HOc3P06-59" vertex="1">
          <mxGeometry y="175" width="170" height="20" as="geometry" />
        </mxCell>
        <mxCell id="0nsjgeY7RRaT_HOc3P06-69" value="isCallAutomation: Boolean" style="text;html=1;strokeColor=none;fillColor=none;align=left;verticalAlign=middle;spacingLeft=4;spacingRight=4;overflow=hidden;rotatable=0;points=[[0,0.5],[1,0.5]];portConstraint=eastwest;" parent="0nsjgeY7RRaT_HOc3P06-59" vertex="1">
          <mxGeometry y="195" width="170" height="20" as="geometry" />
        </mxCell>
        <mxCell id="0nsjgeY7RRaT_HOc3P06-70" value="fieldIds: String[]" style="text;html=1;strokeColor=none;fillColor=none;align=left;verticalAlign=middle;spacingLeft=4;spacingRight=4;overflow=hidden;rotatable=0;points=[[0,0.5],[1,0.5]];portConstraint=eastwest;" parent="0nsjgeY7RRaT_HOc3P06-59" vertex="1">
          <mxGeometry y="215" width="170" height="20" as="geometry" />
        </mxCell>
        <mxCell id="0nsjgeY7RRaT_HOc3P06-71" value="afterTrigger: Boolean" style="text;html=1;strokeColor=none;fillColor=none;align=left;verticalAlign=middle;spacingLeft=4;spacingRight=4;overflow=hidden;rotatable=0;points=[[0,0.5],[1,0.5]];portConstraint=eastwest;" parent="0nsjgeY7RRaT_HOc3P06-59" vertex="1">
          <mxGeometry y="235" width="170" height="20" as="geometry" />
        </mxCell>
        <mxCell id="0nsjgeY7RRaT_HOc3P06-72" value="automationId: String" style="text;html=1;strokeColor=none;fillColor=none;align=left;verticalAlign=middle;spacingLeft=4;spacingRight=4;overflow=hidden;rotatable=0;points=[[0,0.5],[1,0.5]];portConstraint=eastwest;" parent="0nsjgeY7RRaT_HOc3P06-59" vertex="1">
          <mxGeometry y="255" width="170" height="20" as="geometry" />
        </mxCell>
        <mxCell id="0nsjgeY7RRaT_HOc3P06-73" value="viewIds: String[]" style="text;html=1;strokeColor=none;fillColor=none;align=left;verticalAlign=middle;spacingLeft=4;spacingRight=4;overflow=hidden;rotatable=0;points=[[0,0.5],[1,0.5]];portConstraint=eastwest;" parent="0nsjgeY7RRaT_HOc3P06-59" vertex="1">
          <mxGeometry y="275" width="170" height="20" as="geometry" />
        </mxCell>
        <mxCell id="0nsjgeY7RRaT_HOc3P06-64" style="edgeStyle=orthogonalEdgeStyle;rounded=0;orthogonalLoop=1;jettySize=auto;html=1;exitX=0;exitY=0.5;exitDx=0;exitDy=0;entryX=1;entryY=0.25;entryDx=0;entryDy=0;" parent="1" source="EWt5b8vn7UuF1jzuAeMk-102" target="0nsjgeY7RRaT_HOc3P06-59" edge="1">
          <mxGeometry relative="1" as="geometry" />
        </mxCell>
        <mxCell id="0nsjgeY7RRaT_HOc3P06-65" value="1对多" style="edgeLabel;html=1;align=center;verticalAlign=middle;resizable=0;points=[];" parent="0nsjgeY7RRaT_HOc3P06-64" vertex="1" connectable="0">
          <mxGeometry x="-0.0646" y="1" relative="1" as="geometry">
            <mxPoint as="offset" />
          </mxGeometry>
        </mxCell>
        <mxCell id="0nsjgeY7RRaT_HOc3P06-74" value="&amp;lt;&amp;lt;页面数据源&amp;gt;&amp;gt;&lt;br&gt;&lt;span style=&quot;text-align: left&quot;&gt;PageDataSource&lt;/span&gt;" style="swimlane;fontStyle=0;align=center;verticalAlign=top;childLayout=stackLayout;horizontal=1;startSize=55;horizontalStack=0;resizeParent=1;resizeParentMax=0;resizeLast=0;collapsible=0;marginBottom=0;html=1;" parent="1" vertex="1">
          <mxGeometry x="220" y="525" width="170" height="175" as="geometry" />
        </mxCell>
        <mxCell id="0nsjgeY7RRaT_HOc3P06-75" value="id:String" style="text;html=1;strokeColor=none;fillColor=none;align=left;verticalAlign=middle;spacingLeft=4;spacingRight=4;overflow=hidden;rotatable=0;points=[[0,0.5],[1,0.5]];portConstraint=eastwest;" parent="0nsjgeY7RRaT_HOc3P06-74" vertex="1">
          <mxGeometry y="55" width="170" height="20" as="geometry" />
        </mxCell>
        <mxCell id="0nsjgeY7RRaT_HOc3P06-87" value="name: String" style="text;html=1;strokeColor=none;fillColor=none;align=left;verticalAlign=middle;spacingLeft=4;spacingRight=4;overflow=hidden;rotatable=0;points=[[0,0.5],[1,0.5]];portConstraint=eastwest;" parent="0nsjgeY7RRaT_HOc3P06-74" vertex="1">
          <mxGeometry y="75" width="170" height="20" as="geometry" />
        </mxCell>
        <mxCell id="aLEHj2pvLLhQeSvKvPRY-80" value="description: String" style="text;html=1;strokeColor=none;fillColor=none;align=left;verticalAlign=middle;spacingLeft=4;spacingRight=4;overflow=hidden;rotatable=0;points=[[0,0.5],[1,0.5]];portConstraint=eastwest;" parent="0nsjgeY7RRaT_HOc3P06-74" vertex="1">
          <mxGeometry y="95" width="170" height="20" as="geometry" />
        </mxCell>
        <mxCell id="aLEHj2pvLLhQeSvKvPRY-79" value="type: String" style="text;html=1;strokeColor=none;fillColor=none;align=left;verticalAlign=middle;spacingLeft=4;spacingRight=4;overflow=hidden;rotatable=0;points=[[0,0.5],[1,0.5]];portConstraint=eastwest;" parent="0nsjgeY7RRaT_HOc3P06-74" vertex="1">
          <mxGeometry y="115" width="170" height="20" as="geometry" />
        </mxCell>
        <mxCell id="0nsjgeY7RRaT_HOc3P06-88" value="defaultValue: any" style="text;html=1;strokeColor=none;fillColor=none;align=left;verticalAlign=middle;spacingLeft=4;spacingRight=4;overflow=hidden;rotatable=0;points=[[0,0.5],[1,0.5]];portConstraint=eastwest;" parent="0nsjgeY7RRaT_HOc3P06-74" vertex="1">
          <mxGeometry y="135" width="170" height="20" as="geometry" />
        </mxCell>
        <mxCell id="0nsjgeY7RRaT_HOc3P06-89" value="options: Object" style="text;html=1;strokeColor=none;fillColor=none;align=left;verticalAlign=middle;spacingLeft=4;spacingRight=4;overflow=hidden;rotatable=0;points=[[0,0.5],[1,0.5]];portConstraint=eastwest;" parent="0nsjgeY7RRaT_HOc3P06-74" vertex="1">
          <mxGeometry y="155" width="170" height="20" as="geometry" />
        </mxCell>
        <mxCell id="0nsjgeY7RRaT_HOc3P06-91" style="edgeStyle=orthogonalEdgeStyle;rounded=0;orthogonalLoop=1;jettySize=auto;html=1;exitX=0;exitY=0.5;exitDx=0;exitDy=0;entryX=0;entryY=0.25;entryDx=0;entryDy=0;" parent="1" source="0nsjgeY7RRaT_HOc3P06-43" target="0nsjgeY7RRaT_HOc3P06-74" edge="1">
          <mxGeometry relative="1" as="geometry" />
        </mxCell>
        <mxCell id="0nsjgeY7RRaT_HOc3P06-92" value="一对多" style="edgeLabel;html=1;align=center;verticalAlign=middle;resizable=0;points=[];" parent="0nsjgeY7RRaT_HOc3P06-91" vertex="1" connectable="0">
          <mxGeometry x="0.2623" y="1" relative="1" as="geometry">
            <mxPoint as="offset" />
          </mxGeometry>
        </mxCell>
        <mxCell id="aLEHj2pvLLhQeSvKvPRY-2" value="&amp;lt;&amp;lt;语言包&amp;gt;&amp;gt;&lt;br&gt;I18N" style="swimlane;fontStyle=0;align=center;verticalAlign=top;childLayout=stackLayout;horizontal=1;startSize=55;horizontalStack=0;resizeParent=1;resizeParentMax=0;resizeLast=0;collapsible=0;marginBottom=0;html=1;" parent="1" vertex="1">
          <mxGeometry x="90" y="1550" width="170" height="115" as="geometry" />
        </mxCell>
        <mxCell id="aLEHj2pvLLhQeSvKvPRY-3" value="id:String" style="text;html=1;strokeColor=none;fillColor=none;align=left;verticalAlign=middle;spacingLeft=4;spacingRight=4;overflow=hidden;rotatable=0;points=[[0,0.5],[1,0.5]];portConstraint=eastwest;" parent="aLEHj2pvLLhQeSvKvPRY-2" vertex="1">
          <mxGeometry y="55" width="170" height="20" as="geometry" />
        </mxCell>
        <mxCell id="aLEHj2pvLLhQeSvKvPRY-4" value="language:String" style="text;html=1;strokeColor=none;fillColor=none;align=left;verticalAlign=middle;spacingLeft=4;spacingRight=4;overflow=hidden;rotatable=0;points=[[0,0.5],[1,0.5]];portConstraint=eastwest;" parent="aLEHj2pvLLhQeSvKvPRY-2" vertex="1">
          <mxGeometry y="75" width="170" height="20" as="geometry" />
        </mxCell>
        <mxCell id="aLEHj2pvLLhQeSvKvPRY-16" value="value:String" style="text;html=1;strokeColor=none;fillColor=none;align=left;verticalAlign=middle;spacingLeft=4;spacingRight=4;overflow=hidden;rotatable=0;points=[[0,0.5],[1,0.5]];portConstraint=eastwest;" parent="aLEHj2pvLLhQeSvKvPRY-2" vertex="1">
          <mxGeometry y="95" width="170" height="20" as="geometry" />
        </mxCell>
        <mxCell id="aLEHj2pvLLhQeSvKvPRY-18" style="edgeStyle=orthogonalEdgeStyle;rounded=0;orthogonalLoop=1;jettySize=auto;html=1;exitX=0;exitY=0.5;exitDx=0;exitDy=0;" parent="1" source="aLEHj2pvLLhQeSvKvPRY-52" target="aLEHj2pvLLhQeSvKvPRY-2" edge="1">
          <mxGeometry relative="1" as="geometry" />
        </mxCell>
        <mxCell id="aLEHj2pvLLhQeSvKvPRY-19" value="1对多" style="edgeLabel;html=1;align=center;verticalAlign=middle;resizable=0;points=[];" parent="aLEHj2pvLLhQeSvKvPRY-18" vertex="1" connectable="0">
          <mxGeometry x="0.2196" y="-1" relative="1" as="geometry">
            <mxPoint as="offset" />
          </mxGeometry>
        </mxCell>
        <mxCell id="aLEHj2pvLLhQeSvKvPRY-32" value="&amp;lt;&amp;lt;应用元数据&amp;gt;&amp;gt;&lt;br&gt;AppMetaData" style="swimlane;fontStyle=0;align=center;verticalAlign=top;childLayout=stackLayout;horizontal=1;startSize=55;horizontalStack=0;resizeParent=1;resizeParentMax=0;resizeLast=0;collapsible=0;marginBottom=0;html=1;fillColor=#dae8fc;strokeColor=#6c8ebf;" parent="1" vertex="1">
          <mxGeometry x="430" y="1280" width="260" height="155" as="geometry" />
        </mxCell>
        <mxCell id="aLEHj2pvLLhQeSvKvPRY-33" value="id: String" style="text;html=1;strokeColor=none;fillColor=none;align=left;verticalAlign=middle;spacingLeft=4;spacingRight=4;overflow=hidden;rotatable=0;points=[[0,0.5],[1,0.5]];portConstraint=eastwest;" parent="aLEHj2pvLLhQeSvKvPRY-32" vertex="1">
          <mxGeometry y="55" width="260" height="20" as="geometry" />
        </mxCell>
        <mxCell id="aLEHj2pvLLhQeSvKvPRY-34" value="name:String" style="text;html=1;strokeColor=none;fillColor=none;align=left;verticalAlign=middle;spacingLeft=4;spacingRight=4;overflow=hidden;rotatable=0;points=[[0,0.5],[1,0.5]];portConstraint=eastwest;" parent="aLEHj2pvLLhQeSvKvPRY-32" vertex="1">
          <mxGeometry y="75" width="260" height="20" as="geometry" />
        </mxCell>
        <mxCell id="aLEHj2pvLLhQeSvKvPRY-35" value="pages：PageMetaData[]" style="text;html=1;strokeColor=none;fillColor=none;align=left;verticalAlign=middle;spacingLeft=4;spacingRight=4;overflow=hidden;rotatable=0;points=[[0,0.5],[1,0.5]];portConstraint=eastwest;" parent="aLEHj2pvLLhQeSvKvPRY-32" vertex="1">
          <mxGeometry y="95" width="260" height="20" as="geometry" />
        </mxCell>
        <mxCell id="aLEHj2pvLLhQeSvKvPRY-52" value="i18nMessages: I18N[]" style="text;html=1;strokeColor=none;fillColor=none;align=left;verticalAlign=middle;spacingLeft=4;spacingRight=4;overflow=hidden;rotatable=0;points=[[0,0.5],[1,0.5]];portConstraint=eastwest;" parent="aLEHj2pvLLhQeSvKvPRY-32" vertex="1">
          <mxGeometry y="115" width="260" height="20" as="geometry" />
        </mxCell>
        <mxCell id="aLEHj2pvLLhQeSvKvPRY-59" value="automationList:&amp;nbsp;&lt;span style=&quot;text-align: center&quot;&gt;Automation&lt;/span&gt;[]" style="text;html=1;strokeColor=none;fillColor=none;align=left;verticalAlign=middle;spacingLeft=4;spacingRight=4;overflow=hidden;rotatable=0;points=[[0,0.5],[1,0.5]];portConstraint=eastwest;" parent="aLEHj2pvLLhQeSvKvPRY-32" vertex="1">
          <mxGeometry y="135" width="260" height="20" as="geometry" />
        </mxCell>
        <mxCell id="aLEHj2pvLLhQeSvKvPRY-42" value="&amp;lt;&amp;lt;自动化元数据&amp;gt;&amp;gt;&lt;br&gt;Automation" style="swimlane;fontStyle=0;align=center;verticalAlign=top;childLayout=stackLayout;horizontal=1;startSize=55;horizontalStack=0;resizeParent=1;resizeParentMax=0;resizeLast=0;collapsible=0;marginBottom=0;html=1;" parent="1" vertex="1">
          <mxGeometry x="840" y="1300" width="260" height="155" as="geometry" />
        </mxCell>
        <mxCell id="aLEHj2pvLLhQeSvKvPRY-43" value="id: String" style="text;html=1;strokeColor=none;fillColor=none;align=left;verticalAlign=middle;spacingLeft=4;spacingRight=4;overflow=hidden;rotatable=0;points=[[0,0.5],[1,0.5]];portConstraint=eastwest;" parent="aLEHj2pvLLhQeSvKvPRY-42" vertex="1">
          <mxGeometry y="55" width="260" height="20" as="geometry" />
        </mxCell>
        <mxCell id="aLEHj2pvLLhQeSvKvPRY-44" value="name:String" style="text;html=1;strokeColor=none;fillColor=none;align=left;verticalAlign=middle;spacingLeft=4;spacingRight=4;overflow=hidden;rotatable=0;points=[[0,0.5],[1,0.5]];portConstraint=eastwest;" parent="aLEHj2pvLLhQeSvKvPRY-42" vertex="1">
          <mxGeometry y="75" width="260" height="20" as="geometry" />
        </mxCell>
        <mxCell id="aLEHj2pvLLhQeSvKvPRY-51" value="status: Number" style="text;html=1;strokeColor=none;fillColor=none;align=left;verticalAlign=middle;spacingLeft=4;spacingRight=4;overflow=hidden;rotatable=0;points=[[0,0.5],[1,0.5]];portConstraint=eastwest;" parent="aLEHj2pvLLhQeSvKvPRY-42" vertex="1">
          <mxGeometry y="95" width="260" height="20" as="geometry" />
        </mxCell>
        <mxCell id="aLEHj2pvLLhQeSvKvPRY-56" value="nodes: AutomationNode[]" style="text;html=1;strokeColor=none;fillColor=none;align=left;verticalAlign=middle;spacingLeft=4;spacingRight=4;overflow=hidden;rotatable=0;points=[[0,0.5],[1,0.5]];portConstraint=eastwest;" parent="aLEHj2pvLLhQeSvKvPRY-42" vertex="1">
          <mxGeometry y="115" width="260" height="20" as="geometry" />
        </mxCell>
        <mxCell id="aLEHj2pvLLhQeSvKvPRY-58" value="edges: AutomationEdge[]" style="text;html=1;strokeColor=none;fillColor=none;align=left;verticalAlign=middle;spacingLeft=4;spacingRight=4;overflow=hidden;rotatable=0;points=[[0,0.5],[1,0.5]];portConstraint=eastwest;" parent="aLEHj2pvLLhQeSvKvPRY-42" vertex="1">
          <mxGeometry y="135" width="260" height="20" as="geometry" />
        </mxCell>
        <mxCell id="aLEHj2pvLLhQeSvKvPRY-53" style="edgeStyle=orthogonalEdgeStyle;rounded=0;orthogonalLoop=1;jettySize=auto;html=1;exitX=0;exitY=0.5;exitDx=0;exitDy=0;" parent="1" source="aLEHj2pvLLhQeSvKvPRY-35" target="0nsjgeY7RRaT_HOc3P06-43" edge="1">
          <mxGeometry relative="1" as="geometry">
            <Array as="points">
              <mxPoint x="410" y="1385" />
              <mxPoint x="410" y="1230" />
              <mxPoint x="610" y="1230" />
              <mxPoint x="610" y="1075" />
            </Array>
          </mxGeometry>
        </mxCell>
        <mxCell id="aLEHj2pvLLhQeSvKvPRY-54" value="1对多" style="edgeLabel;html=1;align=center;verticalAlign=middle;resizable=0;points=[];" parent="aLEHj2pvLLhQeSvKvPRY-53" vertex="1" connectable="0">
          <mxGeometry x="0.1786" y="-1" relative="1" as="geometry">
            <mxPoint as="offset" />
          </mxGeometry>
        </mxCell>
        <mxCell id="aLEHj2pvLLhQeSvKvPRY-60" style="edgeStyle=orthogonalEdgeStyle;rounded=0;orthogonalLoop=1;jettySize=auto;html=1;exitX=1;exitY=0.5;exitDx=0;exitDy=0;entryX=0;entryY=0.25;entryDx=0;entryDy=0;" parent="1" source="aLEHj2pvLLhQeSvKvPRY-59" target="aLEHj2pvLLhQeSvKvPRY-42" edge="1">
          <mxGeometry relative="1" as="geometry" />
        </mxCell>
        <mxCell id="aLEHj2pvLLhQeSvKvPRY-61" value="1对多" style="edgeLabel;html=1;align=center;verticalAlign=middle;resizable=0;points=[];" parent="aLEHj2pvLLhQeSvKvPRY-60" vertex="1" connectable="0">
          <mxGeometry x="0.1437" y="-2" relative="1" as="geometry">
            <mxPoint as="offset" />
          </mxGeometry>
        </mxCell>
        <mxCell id="aLEHj2pvLLhQeSvKvPRY-62" value="&amp;lt;&amp;lt;自动化节点&amp;gt;&amp;gt;&lt;br&gt;AutomationNode" style="swimlane;fontStyle=0;align=center;verticalAlign=top;childLayout=stackLayout;horizontal=1;startSize=55;horizontalStack=0;resizeParent=1;resizeParentMax=0;resizeLast=0;collapsible=0;marginBottom=0;html=1;" parent="1" vertex="1">
          <mxGeometry x="760" y="1580" width="260" height="135" as="geometry" />
        </mxCell>
        <mxCell id="aLEHj2pvLLhQeSvKvPRY-63" value="nodeId: String" style="text;html=1;strokeColor=none;fillColor=none;align=left;verticalAlign=middle;spacingLeft=4;spacingRight=4;overflow=hidden;rotatable=0;points=[[0,0.5],[1,0.5]];portConstraint=eastwest;" parent="aLEHj2pvLLhQeSvKvPRY-62" vertex="1">
          <mxGeometry y="55" width="260" height="20" as="geometry" />
        </mxCell>
        <mxCell id="aLEHj2pvLLhQeSvKvPRY-64" value="nodeName: String" style="text;html=1;strokeColor=none;fillColor=none;align=left;verticalAlign=middle;spacingLeft=4;spacingRight=4;overflow=hidden;rotatable=0;points=[[0,0.5],[1,0.5]];portConstraint=eastwest;" parent="aLEHj2pvLLhQeSvKvPRY-62" vertex="1">
          <mxGeometry y="75" width="260" height="20" as="geometry" />
        </mxCell>
        <mxCell id="aLEHj2pvLLhQeSvKvPRY-65" value="type: String" style="text;html=1;strokeColor=none;fillColor=none;align=left;verticalAlign=middle;spacingLeft=4;spacingRight=4;overflow=hidden;rotatable=0;points=[[0,0.5],[1,0.5]];portConstraint=eastwest;" parent="aLEHj2pvLLhQeSvKvPRY-62" vertex="1">
          <mxGeometry y="95" width="260" height="20" as="geometry" />
        </mxCell>
        <mxCell id="aLEHj2pvLLhQeSvKvPRY-67" value="input: Object" style="text;html=1;strokeColor=none;fillColor=none;align=left;verticalAlign=middle;spacingLeft=4;spacingRight=4;overflow=hidden;rotatable=0;points=[[0,0.5],[1,0.5]];portConstraint=eastwest;" parent="aLEHj2pvLLhQeSvKvPRY-62" vertex="1">
          <mxGeometry y="115" width="260" height="20" as="geometry" />
        </mxCell>
        <mxCell id="aLEHj2pvLLhQeSvKvPRY-68" style="edgeStyle=orthogonalEdgeStyle;rounded=0;orthogonalLoop=1;jettySize=auto;html=1;exitX=0;exitY=0.5;exitDx=0;exitDy=0;entryX=0.151;entryY=-0.005;entryDx=0;entryDy=0;entryPerimeter=0;" parent="1" source="aLEHj2pvLLhQeSvKvPRY-56" target="aLEHj2pvLLhQeSvKvPRY-62" edge="1">
          <mxGeometry relative="1" as="geometry" />
        </mxCell>
        <mxCell id="aLEHj2pvLLhQeSvKvPRY-69" value="1对多" style="edgeLabel;html=1;align=center;verticalAlign=middle;resizable=0;points=[];" parent="aLEHj2pvLLhQeSvKvPRY-68" vertex="1" connectable="0">
          <mxGeometry x="-0.3243" y="3" relative="1" as="geometry">
            <mxPoint as="offset" />
          </mxGeometry>
        </mxCell>
        <mxCell id="aLEHj2pvLLhQeSvKvPRY-70" value="&amp;lt;&amp;lt;自动化边&amp;gt;&amp;gt;&lt;br&gt;AutomationEdge" style="swimlane;fontStyle=0;align=center;verticalAlign=top;childLayout=stackLayout;horizontal=1;startSize=55;horizontalStack=0;resizeParent=1;resizeParentMax=0;resizeLast=0;collapsible=0;marginBottom=0;html=1;" parent="1" vertex="1">
          <mxGeometry x="1111" y="1520" width="260" height="115" as="geometry" />
        </mxCell>
        <mxCell id="aLEHj2pvLLhQeSvKvPRY-71" value="id: String" style="text;html=1;strokeColor=none;fillColor=none;align=left;verticalAlign=middle;spacingLeft=4;spacingRight=4;overflow=hidden;rotatable=0;points=[[0,0.5],[1,0.5]];portConstraint=eastwest;" parent="aLEHj2pvLLhQeSvKvPRY-70" vertex="1">
          <mxGeometry y="55" width="260" height="20" as="geometry" />
        </mxCell>
        <mxCell id="aLEHj2pvLLhQeSvKvPRY-74" value="sourceId: String" style="text;html=1;strokeColor=none;fillColor=none;align=left;verticalAlign=middle;spacingLeft=4;spacingRight=4;overflow=hidden;rotatable=0;points=[[0,0.5],[1,0.5]];portConstraint=eastwest;" parent="aLEHj2pvLLhQeSvKvPRY-70" vertex="1">
          <mxGeometry y="75" width="260" height="20" as="geometry" />
        </mxCell>
        <mxCell id="aLEHj2pvLLhQeSvKvPRY-75" value="targetId: String" style="text;html=1;strokeColor=none;fillColor=none;align=left;verticalAlign=middle;spacingLeft=4;spacingRight=4;overflow=hidden;rotatable=0;points=[[0,0.5],[1,0.5]];portConstraint=eastwest;" parent="aLEHj2pvLLhQeSvKvPRY-70" vertex="1">
          <mxGeometry y="95" width="260" height="20" as="geometry" />
        </mxCell>
        <mxCell id="aLEHj2pvLLhQeSvKvPRY-76" style="edgeStyle=orthogonalEdgeStyle;rounded=0;orthogonalLoop=1;jettySize=auto;html=1;exitX=1;exitY=0.5;exitDx=0;exitDy=0;" parent="1" source="aLEHj2pvLLhQeSvKvPRY-58" target="aLEHj2pvLLhQeSvKvPRY-70" edge="1">
          <mxGeometry relative="1" as="geometry" />
        </mxCell>
        <mxCell id="aLEHj2pvLLhQeSvKvPRY-77" value="1对多" style="edgeLabel;html=1;align=center;verticalAlign=middle;resizable=0;points=[];" parent="aLEHj2pvLLhQeSvKvPRY-76" vertex="1" connectable="0">
          <mxGeometry x="-0.2023" y="2" relative="1" as="geometry">
            <mxPoint as="offset" />
          </mxGeometry>
        </mxCell>
        <mxCell id="AlY3eQ7WbAes0plMb5D--1" value="&amp;lt;&amp;lt;代码片段&amp;gt;&amp;gt;&lt;br&gt;CodeSegment" style="swimlane;fontStyle=0;align=center;verticalAlign=top;childLayout=stackLayout;horizontal=1;startSize=55;horizontalStack=0;resizeParent=1;resizeParentMax=0;resizeLast=0;collapsible=0;marginBottom=0;html=1;" vertex="1" parent="1">
          <mxGeometry x="-40" y="1370" width="170" height="155" as="geometry" />
        </mxCell>
        <mxCell id="AlY3eQ7WbAes0plMb5D--2" value="id:String" style="text;html=1;strokeColor=none;fillColor=none;align=left;verticalAlign=middle;spacingLeft=4;spacingRight=4;overflow=hidden;rotatable=0;points=[[0,0.5],[1,0.5]];portConstraint=eastwest;" vertex="1" parent="AlY3eQ7WbAes0plMb5D--1">
          <mxGeometry y="55" width="170" height="20" as="geometry" />
        </mxCell>
        <mxCell id="AlY3eQ7WbAes0plMb5D--3" value="code: String" style="text;html=1;strokeColor=none;fillColor=none;align=left;verticalAlign=middle;spacingLeft=4;spacingRight=4;overflow=hidden;rotatable=0;points=[[0,0.5],[1,0.5]];portConstraint=eastwest;" vertex="1" parent="AlY3eQ7WbAes0plMb5D--1">
          <mxGeometry y="75" width="170" height="20" as="geometry" />
        </mxCell>
        <mxCell id="AlY3eQ7WbAes0plMb5D--6" value="name: String" style="text;html=1;strokeColor=none;fillColor=none;align=left;verticalAlign=middle;spacingLeft=4;spacingRight=4;overflow=hidden;rotatable=0;points=[[0,0.5],[1,0.5]];portConstraint=eastwest;" vertex="1" parent="AlY3eQ7WbAes0plMb5D--1">
          <mxGeometry y="95" width="170" height="20" as="geometry" />
        </mxCell>
        <mxCell id="AlY3eQ7WbAes0plMb5D--7" value="description: String" style="text;html=1;strokeColor=none;fillColor=none;align=left;verticalAlign=middle;spacingLeft=4;spacingRight=4;overflow=hidden;rotatable=0;points=[[0,0.5],[1,0.5]];portConstraint=eastwest;" vertex="1" parent="AlY3eQ7WbAes0plMb5D--1">
          <mxGeometry y="115" width="170" height="20" as="geometry" />
        </mxCell>
        <mxCell id="AlY3eQ7WbAes0plMb5D--4" value="language: String" style="text;html=1;strokeColor=none;fillColor=none;align=left;verticalAlign=middle;spacingLeft=4;spacingRight=4;overflow=hidden;rotatable=0;points=[[0,0.5],[1,0.5]];portConstraint=eastwest;" vertex="1" parent="AlY3eQ7WbAes0plMb5D--1">
          <mxGeometry y="135" width="170" height="20" as="geometry" />
        </mxCell>
        <mxCell id="AlY3eQ7WbAes0plMb5D--8" style="edgeStyle=orthogonalEdgeStyle;rounded=0;orthogonalLoop=1;jettySize=auto;html=1;exitX=0;exitY=0.5;exitDx=0;exitDy=0;entryX=0.75;entryY=0;entryDx=0;entryDy=0;" edge="1" parent="1" source="AlY3eQ7WbAes0plMb5D--5" target="AlY3eQ7WbAes0plMb5D--1">
          <mxGeometry relative="1" as="geometry">
            <Array as="points">
              <mxPoint x="220" y="1095" />
              <mxPoint x="220" y="1190" />
              <mxPoint x="88" y="1190" />
            </Array>
          </mxGeometry>
        </mxCell>
        <mxCell id="AlY3eQ7WbAes0plMb5D--9" value="1对多" style="edgeLabel;html=1;align=center;verticalAlign=middle;resizable=0;points=[];" vertex="1" connectable="0" parent="AlY3eQ7WbAes0plMb5D--8">
          <mxGeometry x="-0.0361" y="2" relative="1" as="geometry">
            <mxPoint y="1" as="offset" />
          </mxGeometry>
        </mxCell>
        <mxCell id="AlY3eQ7WbAes0plMb5D--11" value="&amp;lt;&amp;lt;事件代码绑定&amp;gt;&amp;gt;&lt;br&gt;&lt;span style=&quot;text-align: left&quot;&gt;EventCodeSegment&lt;/span&gt;" style="swimlane;fontStyle=0;align=center;verticalAlign=top;childLayout=stackLayout;horizontal=1;startSize=55;horizontalStack=0;resizeParent=1;resizeParentMax=0;resizeLast=0;collapsible=0;marginBottom=0;html=1;" vertex="1" parent="1">
          <mxGeometry x="827" y="1145" width="260" height="95" as="geometry" />
        </mxCell>
        <mxCell id="AlY3eQ7WbAes0plMb5D--12" value="codeId：String" style="text;html=1;strokeColor=none;fillColor=none;align=left;verticalAlign=middle;spacingLeft=4;spacingRight=4;overflow=hidden;rotatable=0;points=[[0,0.5],[1,0.5]];portConstraint=eastwest;" vertex="1" parent="AlY3eQ7WbAes0plMb5D--11">
          <mxGeometry y="55" width="260" height="20" as="geometry" />
        </mxCell>
        <mxCell id="AlY3eQ7WbAes0plMb5D--13" value="eventKey:String" style="text;html=1;strokeColor=none;fillColor=none;align=left;verticalAlign=middle;spacingLeft=4;spacingRight=4;overflow=hidden;rotatable=0;points=[[0,0.5],[1,0.5]];portConstraint=eastwest;" vertex="1" parent="AlY3eQ7WbAes0plMb5D--11">
          <mxGeometry y="75" width="260" height="20" as="geometry" />
        </mxCell>
        <mxCell id="AlY3eQ7WbAes0plMb5D--17" style="edgeStyle=orthogonalEdgeStyle;rounded=0;orthogonalLoop=1;jettySize=auto;html=1;exitX=1;exitY=0.5;exitDx=0;exitDy=0;entryX=0.196;entryY=-0.053;entryDx=0;entryDy=0;entryPerimeter=0;" edge="1" parent="1" source="AlY3eQ7WbAes0plMb5D--10" target="AlY3eQ7WbAes0plMb5D--11">
          <mxGeometry relative="1" as="geometry">
            <Array as="points">
              <mxPoint x="920" y="1033" />
              <mxPoint x="920" y="1081" />
              <mxPoint x="890" y="1081" />
              <mxPoint x="890" y="1115" />
            </Array>
          </mxGeometry>
        </mxCell>
        <mxCell id="AlY3eQ7WbAes0plMb5D--18" value="1对1" style="edgeLabel;html=1;align=center;verticalAlign=middle;resizable=0;points=[];" vertex="1" connectable="0" parent="AlY3eQ7WbAes0plMb5D--17">
          <mxGeometry x="-0.4512" y="2" relative="1" as="geometry">
            <mxPoint as="offset" />
          </mxGeometry>
        </mxCell>
      </root>
    </mxGraphModel>
  </diagram>
</mxfile>
